<svg xmlns="http://www.w3.org/2000/svg" width="80" height="81" viewBox="0 0 80 81" fill="none">
    <path d="M0 35.0023H34.2857V42.4308C34.2857 44.64 32.4949 46.4308 30.2857 46.4308H0V35.0023Z"
        fill="#FFEEAA" />
    <path
        d="M80 46.4308L45.7143 46.4308L45.7143 39.0023C45.7143 36.7931 47.5051 35.0023 49.7143 35.0023L80 35.0023L80 46.4308Z"
        fill="#FFEEAA" />
    <path
        d="M45.7144 0.716553L45.7144 31.0023C45.7144 33.2114 43.9235 35.0023 41.7144 35.0023L34.2858 35.0023L34.2858 0.716552L45.7144 0.716553Z"
        fill="#FFEEAA" />
    <path
        d="M34.2856 80.7166L34.2856 50.4308C34.2856 48.2217 36.0765 46.4308 38.2856 46.4308L45.7142 46.4308L45.7142 80.7166L34.2856 80.7166Z"
        fill="#FFEEAA" />
</svg>