<svg xmlns="http://www.w3.org/2000/svg" width="483" height="441" viewBox="0 0 483 441" fill="none">
    <g opacity="0.24" filter="url(#filter0_f_70_9557)">
        <path
            d="M365.857 285.407C360.141 288.212 351.986 289.957 345.651 290.728C343.972 290.937 344.01 289.587 343.218 289.219C343.156 289.19 343.088 289.167 343.014 289.152C342.916 289.13 342.806 289.122 342.682 289.131C339.964 289.32 337.891 290.904 335.203 290.983C334.31 291.001 334.471 288.068 333.551 288.146C328.51 288.596 324.354 290.802 319.507 291.933C306.271 295.013 293.423 298.758 280.483 302.541C280.324 302.587 280.165 302.634 280.006 302.681C269.757 305.686 259.41 308.945 248.851 312.185C240.918 314.623 230.537 315.644 222.771 319.553C221.865 320.011 223.258 322.145 223.145 322.401C221.335 326.338 220.622 321.298 218.544 321.318C210.301 321.41 202.014 323.966 195.074 327.175C192.218 328.5 196.408 332.002 193.097 330.737C192.989 330.695 192.872 330.648 192.747 330.596C192.476 330.486 192.474 327.743 191.547 327.742C191.414 327.742 191.276 327.748 191.134 327.759C188.998 327.942 185.842 329.319 184.375 329.553C181.383 330.013 180.913 330.178 178.179 330.936C174.437 331.947 169.64 331.921 165.784 333.552C164.962 333.907 166.787 336.204 165.522 337.009C164.264 337.814 160.547 338.531 159.169 338.22C157.784 337.913 157.799 335.732 157.465 335.317C154.72 331.794 151.85 338.304 151.326 338.569C142.171 343.122 133.131 341.944 124.058 343.528C123.823 343.569 123.59 343.612 123.359 343.656C123.157 343.694 122.956 343.733 122.757 343.773C115.695 345.173 108.156 347.413 100.677 347.825C94.5059 348.148 88.3583 347.438 82.048 345.999C81.4258 345.857 80.8078 345.71 80.198 345.56C77.6788 344.947 75.1793 344.203 72.654 343.359C71.6011 342.997 71.7246 346.455 70.389 345.988C64.9371 344.049 60.0594 341.252 55.9836 338.213C53.9564 336.707 52.1026 335.122 50.5592 333.694C49.7954 332.986 49.0991 332.314 48.6385 331.835C48.4196 331.603 48.2453 331.412 48.2663 331.357C48.3191 331.307 48.4213 331.37 49.5131 331.801C50.152 332.024 51.1558 332.46 53.2995 332.702C53.7529 332.71 54.2471 332.742 55.4682 332.628C56.1578 332.558 57.025 332.429 58.107 332.115C59.1284 331.83 61.2015 331.05 63.0274 329.625C64.8478 328.316 67.0829 325.52 67.9517 322.97C68.8566 320.475 68.9166 318.584 68.8349 317.057C68.626 314.46 68.0238 313.337 67.7801 312.79C67.4703 312.16 67.2528 311.884 67.1174 311.742C66.9729 311.59 66.8904 311.562 66.8427 311.583C66.75 311.632 66.7747 311.855 66.8624 312.147C67.0526 312.736 64.3504 313.888 64.4821 314.666C65.779 319.94 70.1748 331.411 81.0063 324.712C83.8578 327.939 87.4893 331.798 88.8504 336.237C89.728 339.093 85.8887 339.781 89.0892 340.844C89.812 341.089 90.8562 338.472 91.8041 338.99C92.5359 339.385 93.2801 339.876 93.9638 340.365C94.8669 341.005 95.7364 341.696 96.6179 342.383C98.5067 343.857 100.44 345.304 102.696 346.077C103.53 346.356 104.773 344.322 105.214 344.121C108.796 342.517 108.049 349.018 108.436 349.788C111.173 355.477 115.321 356.676 119.702 359.349C120.724 359.969 121.09 356.524 122.12 357.014C127.419 359.575 132.646 362.586 137.337 366.249C138.381 367.07 136.215 369.021 136.664 369.539C138.707 371.799 141.228 367.399 143.202 369.394C143.628 369.809 142.494 371.807 142.494 372.078C142.5 374.612 143.727 373.977 144.756 373.043C145.394 372.391 145.954 371.605 146.095 371.605C146.748 371.584 147.317 371.688 147.839 371.887C150.796 373.011 152.715 377.62 156.89 377.453C157.457 377.418 156.539 374.438 158.083 374.509C161.493 374.648 165.124 374.758 168.927 374.916C169.86 374.957 170.746 374.994 171.615 375.022C177.311 375.254 183.599 374.82 190.276 374.387C192.023 374.271 191.394 376.568 191.563 376.787C194.414 380.117 194.071 374.689 194.563 374.344C198.461 371.742 203.975 374.572 204.938 367.686C210.957 366.418 216.793 364.463 222.622 362.31C223.48 361.993 224.352 361.666 225.237 361.331C236.958 356.89 248.544 352.143 261.499 350.688C261.755 350.653 262.295 353.18 262.802 353.1C268.921 352.156 266.369 348.923 268.208 342.947C268.67 341.447 273.715 345.687 274.124 345.981C275.633 347.066 276.13 350.953 276.551 351.11C279.987 352.288 274.816 340.885 278.2 339.483C278.314 339.458 278.749 341.771 279.121 341.865C280.281 342.163 280.813 340.952 281.981 341.326C284.662 342.201 287.711 347.517 289.38 342.989C289.587 342.405 286.271 336.101 289.426 335.147C290.687 334.773 295.978 332.423 297.65 332.217C299.321 332.012 299.184 334.55 299.329 334.596C304.532 335.683 303.493 337.48 307.253 340.749C311.009 344 306.308 334.445 306.666 333.004C307.031 331.565 310.946 332.612 312.017 333.098C313.082 333.587 312.746 335.308 313.583 335.485C319.111 336.614 313.384 329.835 314.132 327.682C315.878 322.594 321.559 328.735 324.897 328.139C325.804 327.975 324.422 326.616 325.088 326.147C327.717 324.316 330.446 325.815 332.831 322.323C333.237 321.747 333.966 316.266 337.094 318.692C337.538 319.046 337.633 321.146 339.038 321.012C341.119 320.824 344.603 319.764 346.332 318.284C347.591 317.199 344.624 314.973 346.849 315.089C347.836 315.144 347.104 317.535 348.901 317.49C350.722 317.434 354.578 315.629 356.006 314.917C357.459 314.194 355.648 312.318 355.7 312.114C355.938 311.297 357.114 309.936 357.882 309.138C358.256 308.763 358.543 308.506 358.622 308.471C358.974 308.303 359.323 308.14 359.67 307.982C371.721 302.43 384.714 300.78 395.179 293.351C396.023 292.745 394.134 290.859 394.25 290.743C396.641 288.084 397.78 295.378 401.126 296.033C398.083 291.758 399.814 291.841 401.513 290.013C402.31 289.134 400.64 287.819 400.613 287.588C400.191 284.151 403.377 286.708 404.132 287.156C406.857 288.838 405.6 285.306 407.449 286.353C409.343 287.336 409.827 290.81 411.667 289.155C410.912 287.322 406.407 284.79 407.144 283.068C407.355 282.562 407.613 282.061 407.918 281.56C408.197 281.097 408.507 280.641 408.84 280.191C412.816 275.078 420.151 269.226 422.373 265.278C424.985 260.806 425.123 259.065 426.714 256.411C429.427 251.466 425.243 252.385 424.173 248.919C422.963 245.508 431.963 248.516 434.034 248.361C436.11 248.149 434.142 247.268 435.329 246.77C436.52 246.249 437.69 247.887 438.316 246.343C438.986 244.739 435.67 240.131 433.508 239.6C430.258 238.709 426.858 239.319 425.859 238.38C425.555 238.104 425.468 237.697 425.657 237.064C425.709 236.89 425.782 236.699 425.876 236.487C425.969 236.277 428.503 236.917 428.734 236.105C430.486 229.571 429.327 222.578 429.089 215.533C429.06 214.554 432.089 214.555 432.101 213.964C432.144 207.741 428.054 211.213 421.83 210.189C428.967 208.382 432.65 205.169 431.016 200.848C430.023 198.284 427.195 199.974 424.405 199.303C423.567 199.112 424.857 196.478 423.308 196.797C418.241 197.866 413.855 201.762 413.977 196.886C413.989 196.665 416.775 196.033 416.631 195.356C415.691 190.943 410.651 192.851 407.84 189.027C406.876 187.717 406.278 185.599 405.771 183.268C405.695 182.862 405.62 182.451 405.546 182.039C405.121 179.654 404.624 177.196 403.761 175.515C411.225 170.653 407.123 168.314 401.248 170.973C399.819 168.777 397.675 166.861 396.575 164.359C396.191 163.495 398.577 162.168 398.715 161.893C400.889 157.564 395.471 160.803 394.905 160.566C388.786 157.568 388.42 150.518 380.697 149.519C380.518 149.497 378.437 151.343 377.564 151.416C377.159 151.458 377.026 151.106 377.484 149.971C377.558 149.788 377.647 149.585 377.753 149.361C377.793 149.278 378.07 149.167 378.419 149.008C379.128 148.684 380.141 148.164 380.093 147.284C380.075 146.955 379.908 146.576 379.515 146.132C377.592 143.945 376.003 137.591 370.942 137.033C369.718 136.892 364.297 139.114 365.647 134.708C365.832 134.112 367.319 132.927 367.741 131.896C369.074 128.598 364.111 133.024 366.816 127.882C369.535 122.752 370.058 117.548 364.385 117.661C364.209 117.656 359.989 120.9 359.078 119.972C357.627 118.489 356.155 115.721 354.509 114.312C353.722 113.64 352.071 116.508 351.897 116.433C345.493 113.193 343.682 107.772 338.831 101.962C337.946 100.894 332.116 101.682 332.345 97.3329C332.567 92.5585 345.053 82.4274 337.417 80.9725C334.316 80.3699 319.014 93.5745 321.796 82.5253C320.425 81.9189 319.162 81.1649 318.014 80.3496C317.839 80.2248 317.667 80.0985 317.496 79.971C311.434 75.4328 307.447 68.5418 299.344 66.3633C298.904 66.2441 294.613 69.9078 293.873 69.2879C292.747 68.336 293.552 65.7828 292.785 65.0469C289.572 61.896 285.011 61.5016 281.593 59.0107C280.293 58.0775 282.113 56.128 280.511 55.0148C278.889 53.9073 276.112 56.2437 274.624 53.5493C274.103 52.6001 274.144 50.5599 274.122 48.4583C274.089 48.4391 273.985 48.3913 273.951 48.3737C273.935 48.1202 273.918 47.866 273.899 47.6128C273.743 45.4582 273.432 43.3716 272.401 42.5106C269.525 48.6795 267.915 47.8036 264.269 48.2014C263.572 48.2828 263.269 50.6962 262.896 50.846C261.357 51.4978 261.092 49.293 259.583 50.0842C259.219 50.2731 258.363 52.3818 258.021 52.6546C255.121 55.0459 254.149 49.1814 253.916 48.1814C253.135 44.3495 251.267 46.7629 250.213 45.0274C249.132 43.309 251.876 42.5219 250.355 41.2091C247.165 38.4971 242.174 37.5335 238.327 36.6074C236.779 36.2505 237.233 39.1589 236.996 39.1702C233.769 39.1164 230.978 35.7983 228.436 40.7017C228.378 32.9798 227.62 34.3088 226.384 36.3007C226.377 36.2986 226.356 36.2986 226.349 36.2967C226.305 36.373 226.26 36.4503 226.214 36.5282C225.296 38.0829 224.114 39.8058 222.319 38.5301C221.99 38.2605 221.885 32.4146 223.401 31.4584C224.334 30.8779 225.475 31.3747 226.691 31.6136C226.729 31.6209 226.767 31.6279 226.806 31.6345C226.842 31.6446 226.957 31.6446 226.993 31.6559C227.72 31.8052 228.49 31.8198 229.307 31.3765C229.797 31.1008 233.609 25.4625 234.101 25.1354C237.775 22.6286 236.213 32.3981 236.239 32.9585C236.701 39.0244 241.363 33.1482 242.414 32.8618C246.951 31.6102 249.907 33.8891 253.668 33.2994C256.132 32.9313 258.662 26.3353 260.351 27.0423C266.017 29.4405 263.962 39.5583 272.544 33.3919C274.382 32.0918 276.544 24.2513 277.988 31.6766C278.045 31.976 278.288 34.752 279.256 36.043C279.344 36.1588 279.438 36.2627 279.538 36.3518C279.69 36.4304 280.154 36.6435 280.301 36.7295C280.81 37.2275 281.536 37.3253 282.569 36.5926C282.999 36.2884 284.12 34.1974 284.495 34.1655C286.986 33.9945 287.317 36.3126 289.782 36.6305C292.255 36.9527 295.399 37.1804 297.218 39.2259C298.326 40.4554 297.588 45.2865 297.587 46.593C297.569 50.3396 302.317 47.2272 301.189 51.1082C300.026 55.002 294.723 58.5034 295.916 62.3667C299.617 57.26 303.557 52.1129 307.362 47.0284C313.391 51.3767 317.88 57.2367 323.729 61.3858C324.453 61.8914 325.855 58.6378 326.694 59.1158C328.498 60.1587 329.685 61.7095 330.928 63.2355C331.07 63.4096 331.214 63.5838 331.359 63.7572C332.431 65.0475 333.609 66.2781 335.29 67.0806C338.264 68.4822 343.313 67.8709 346.494 69.281C343.363 76.2299 348.743 77.4404 351.047 80.2508C351.856 81.2334 350.508 82.679 350.769 83.7404C351.78 87.7109 354.828 81.7316 356.202 81.5435C362.092 80.7636 352.677 92.2015 356.408 94.9312C356.599 95.0773 364.072 91.0684 364.714 90.9699C368.827 90.2698 363.229 93.329 364.087 94.8453C365.651 97.6173 365.957 100.402 370.146 100.987C371.372 101.149 376.525 99.0849 375.467 103.272C375.328 103.82 373.465 105.68 373.519 105.935C374.655 110.385 380.257 104.313 383.781 103.708C387.307 103.104 385.99 109.619 385.379 111.293C383.825 115.643 383.131 111.709 382.771 111.948C378.567 114.851 380.963 115.869 382.071 117.455C376.776 123.615 379.019 125.02 383.231 119.068C383.684 118.411 382.101 117.985 382.071 117.455C388.672 112.697 391.562 113.958 388.813 121.586C387.53 125.171 383.696 127.148 388.026 129.186C389.986 130.118 393.275 125.521 395.652 125.679C397.226 125.81 398.349 126.494 399.284 127.515C399.54 127.795 399.776 128.096 399.997 128.413C401.791 130.976 402.706 134.642 405.006 136.303C406.333 137.271 407.416 133.986 408.394 134.577C410.992 136.155 411.111 139.667 413.94 141.154C414.2 141.29 416.056 138.625 416.714 139.33C421.699 144.663 424.398 151.175 429.022 158.584C430.278 160.607 432.519 163.408 434.375 166.193C434.695 166.669 435.004 167.145 435.297 167.612C436.143 168.918 436.881 170.208 437.299 171.346C439.484 177.251 438.939 186.29 441.923 191.055C443.86 194.205 446.18 192.369 448.533 193.157C453.109 194.756 448.623 202.599 447.85 203.587C447.83 203.608 446.215 200.711 445.39 202.849C442.87 204.786 447.826 203.548 447.85 203.587C447.402 204.262 448.589 210.814 449.366 212.003C449.812 212.637 452.24 211.571 452.424 211.923C456.168 219.204 458.068 227.856 457.29 236.856C457.232 237.536 457.158 238.216 457.068 238.898C456.974 239.588 456.865 240.278 456.739 240.968C456.677 241.143 453.889 240.77 453.778 241.173C452.13 246.736 454.944 250.655 455.785 255.95C456.602 261.202 454.539 265.094 449.142 266.201C448.432 269.831 444.328 273.76 441.859 275.682C439.412 277.601 443.701 280.48 443.655 280.773C442.098 289.575 436.546 291.914 430.624 297.604C429.958 298.23 429.195 299.013 428.351 299.9C427.859 300.417 427.34 300.967 426.803 301.536C424.415 304.12 421.179 307.355 419.116 309.285C416.542 311.721 414.194 311.806 412.109 314.009C411.823 314.306 413.362 316.042 413.304 316.181C411.877 320.249 410.377 314.617 409.293 314.105C405.415 312.175 403.328 311.152 400.806 314.455C400.25 315.201 401.739 323.518 400.502 324.681C398.948 326.148 398.301 323.239 396.73 324.814C396.596 324.945 397.409 326.532 396.201 327.047C390.572 329.468 384.276 331.292 378.821 334.004C378.066 334.372 380.229 336.491 379.149 337.067C377.498 337.949 375.712 338.834 373.975 339.606C373.327 339.894 372.664 340.177 371.988 340.453C369.053 341.644 365.945 342.641 362.943 343.183C361.582 343.422 361.547 341.268 361.042 340.848C357.94 338.329 357.756 344.069 357.399 344.335C349.271 350.64 340.419 349.378 332.003 355.426C331.54 355.768 329.836 362.542 326.214 358.909C325.971 358.669 322.346 354.918 322.123 358.634C322.109 358.867 324.168 360.717 322.189 361.282C320.224 361.842 317.849 364.671 314.201 363.22C313.044 362.766 309.232 359.097 308.3 363.696C308.248 364.012 307.874 373.681 304.192 368.664C303.589 367.837 301.348 361.836 299.705 366.081C299.394 366.9 300.953 367.797 299.831 369.232C298.112 371.44 294.484 371.092 292.802 374.878C292.512 375.545 292.121 380.412 289.206 378.046C288.751 377.675 288.427 375.495 287.465 375.633C282.893 376.278 279.086 379.385 274.312 379.73C272.621 379.856 272.083 376.342 270.186 376.112C268.279 375.886 264.827 376.319 263.771 378.447C262.725 380.572 266.56 384.973 264.279 386.365C256.302 391.216 247.121 392.943 238.095 395.293C237.14 395.543 236.2 395.797 235.278 396.057C233.937 396.441 232.664 396.827 231.373 397.258C229.708 397.814 231.734 399.161 229.368 400.101C220.618 403.587 205.335 411.335 194.908 409.579C186.764 408.086 195.362 403.186 189.522 403.172C186.791 403.13 184.82 410.284 184.054 410.628C180.147 412.549 176.225 412.515 172.709 412.233C171.282 412.121 169.918 411.975 168.616 411.923C167.571 411.878 166.487 411.913 165.324 412.098C164.127 412.286 165.23 415.035 164.196 415.164C160.63 415.63 156.756 414.272 152.96 414.155C151.245 414.103 151.296 416.241 149.685 415.893C145.824 415.063 142.294 413.529 138.844 410.566C138.55 410.299 141.597 408.35 138.714 407.485C138.142 407.309 137.559 407.093 136.968 406.849C135.555 406.264 134.095 405.518 132.597 404.748C130.34 403.495 127.94 402.35 125.104 402.468C123.676 402.536 121.627 407.023 120.413 402.787C120.157 401.895 123.31 396.843 118.21 400.14C117.391 400.711 109.27 404.528 108.846 399.298C108.731 397.927 109.399 392.808 107.68 392.756C107.435 392.764 106.921 395.502 105.649 395.118C101.174 393.711 97.131 391.057 92.6506 389.257C91.4442 388.774 91.5833 392.119 89.8192 391.314C84.9511 389.099 79.8478 384.753 76.2245 380.953C74.894 379.551 77.3499 378.513 77.3887 378.229C78.1201 373.679 73.728 377.226 72.9274 377.01C71.5136 376.62 70.4088 375.963 69.479 375.186C68.3727 374.263 67.5057 373.169 66.6001 372.101C65.8446 371.153 65.0164 370.226 63.8415 369.558C62.9501 369.046 61.7758 371.504 61.4686 371.553C58.362 371.943 62.6514 369.362 61.9729 368.107C60.087 364.583 56.7261 362.008 53.5495 359.708C52.3793 358.864 51.5625 362.224 50.5306 361.436C44.2467 356.585 38.7839 351.747 32.5961 342.217C31.2746 340.14 34.1075 339.801 34.2059 339.07C34.5285 336.38 33.0123 335.324 29.9439 331.573C29.1727 330.585 28.2265 329.179 27.3684 327.513C26.3695 325.324 25.3751 323.076 24.9283 318.712C24.5263 314.165 25.192 308.459 28.2432 302.794C31.1895 297.335 35.0159 294.224 37.0674 292.746C46.3132 286.85 49.6955 287.508 53.1063 286.894C55.6017 286.645 57.3116 286.689 58.8093 286.782C63.9588 287.367 66.496 288.501 68.363 289.262C72.8336 291.303 73.8775 292.507 75.1529 293.557C76.2915 294.577 77.0991 295.397 78.0602 295.992C85.9046 300.827 87.273 301.457 88.8787 302.471C89.0738 302.542 89.2592 302.61 89.4421 302.675C90.8872 303.213 92.8059 303.661 95.2663 303.865C101.133 304.328 108.255 304.25 115.222 303.61C115.633 303.57 116.049 303.527 116.472 303.482C121.797 302.918 127.089 302.096 132.697 300.644C133.57 300.42 132.018 297.567 132.757 297.336C142.359 294.48 152.208 293.312 161.608 289.781C162.377 289.497 160.453 286.97 161.658 286.419C164.122 285.269 167.422 284.487 170.294 284.615C171.692 284.672 170.71 287.605 172.109 287.611C174.206 287.619 176.293 287.3 178.303 286.688C178.593 286.601 178.881 286.506 179.167 286.406C179.987 286.119 180.799 285.78 181.575 285.4C182.82 284.782 179.93 282.543 181.615 281.964C193.08 277.949 204.333 273.332 217.577 272.62C218.484 272.571 221.309 278.106 222.649 276.348C222.193 274.69 221.496 272.799 220.926 271.057C234.493 265.159 248.752 261.006 263.277 256.472C263.44 256.421 263.603 256.371 263.766 256.32C267.112 255.275 270.468 254.241 273.822 253.177C274.586 252.935 272.177 250.279 273.651 249.797C282.175 247.007 290.248 243.649 300.017 244.019C300.98 244.052 302.33 249.518 304.598 247.929C305.005 247.641 308.596 245.754 309.203 244.303C309.282 244.088 307.758 241.829 308.978 241.379C314.409 239.411 320.203 237.926 325.947 236.956C326.004 236.946 326.061 236.936 326.118 236.927C327.783 236.649 329.464 236.417 331.135 236.239C332.344 236.115 331.997 239.121 332.87 239.054C339.029 238.566 344.552 234.533 350.781 235.076C354.955 235.447 355.122 240.401 358.552 244.18C359.037 244.713 361.335 244.05 362.32 246.588C364.804 252.969 366.097 260.437 368.874 267.195C369.334 268.32 370.93 267.01 371.361 268.29C371.362 268.291 371.362 268.291 371.362 268.291C371.489 268.669 371.515 269.272 371.382 270.228C371.337 270.51 369.536 272.446 369.401 273.85C369.306 274.821 370.872 277.213 370.461 278.553C370.051 279.892 368.461 277.98 367.602 279.681C366.746 281.398 368.316 284.191 365.857 285.407ZM430.516 283.322C427.082 283.767 433.988 289.63 433.983 286.07C433.974 285.889 430.691 283.291 430.516 283.322ZM312.62 64.0377C311.856 69.7166 317.883 65.0777 318.636 60.7955C319.344 56.4986 312.832 62.3078 312.62 64.0377ZM285.871 50.2353C286.712 55.2417 295.564 42.1867 290.613 42.9578C290.328 43.0002 285.813 49.9415 285.871 50.2353ZM349.971 248.459C350.041 248.571 351.705 248.148 351.704 248.014C351.595 244.81 348.269 245.658 349.971 248.459ZM257.245 41.2506C257.511 43.4808 261.128 42.3354 260.829 39.5292C260.564 37.2726 256.865 38.4733 257.245 41.2506ZM326.73 332.168C326.645 332.058 325.458 332.436 325.786 333.126C326.828 335.356 328.145 334.033 326.73 332.168ZM208.329 35.0802C215.609 33.5803 219.559 43.9559 211.935 40.5913C211.235 40.3188 212.002 40.0662 212.721 39.6222C213.436 39.1929 214.124 38.554 213.232 38.1359C211.608 37.4089 210.222 38.0593 208.84 38.2853C207.452 38.5617 206.077 38.4285 204.399 37.6294C204.096 37.4867 204.969 37.0867 205.98 36.4882C206.989 35.913 208.127 35.0924 208.342 35.0721C208.338 35.0748 208.334 35.0775 208.329 35.0802ZM420.992 277.878C420.873 277.844 419.738 279.117 419.802 279.219C421.452 281.769 423.843 279.094 420.992 277.878ZM258.205 354.699C258.022 354.497 254.271 355.748 254.233 356.016C254.073 361.166 261.689 358.639 258.205 354.699ZM403.922 175.331C400.054 175.92 398.594 174.787 401.249 170.982C402.134 172.463 403.131 173.834 403.922 175.331Z"
            fill="#D7BFFF" />
    </g>
    <defs>
        <filter id="filter0_f_70_9557" x="0.134155" y="0.0366821" width="482.016" height="440.583"
            filterUnits="userSpaceOnUse" color-interpolation-filters="sRGB">
            <feFlood flood-opacity="0" result="BackgroundImageFix" />
            <feBlend mode="normal" in="SourceGraphic" in2="BackgroundImageFix" result="shape" />
            <feGaussianBlur stdDeviation="12.3441" result="effect1_foregroundBlur_70_9557" />
        </filter>
    </defs>
</svg>