<svg xmlns="http://www.w3.org/2000/svg" width="174" height="48" viewBox="0 0 174 48" fill="none">
    <path d="M17.0583 8.52917C17.0583 7.58704 16.2944 6.82312 15.3522 6.82312H17.0583V8.52917Z"
        fill="black" />
    <path
        d="M25.5886 6.82381C24.6465 6.82381 23.8827 7.58691 23.8825 8.52889L23.8825 6.82381L25.5886 6.82381Z"
        fill="black" />
    <path
        d="M40.9415 1.00001C40.9415 0.447723 40.4938 7.6544e-06 39.9415 7.68524e-06L0.999973 9.85998e-06C0.447689 9.89082e-06 -2.6742e-05 0.447725 -2.67903e-05 1.00001L-2.7212e-05 5.82356C-2.72603e-05 6.37585 0.447688 6.82356 0.999973 6.82356L39.9415 6.82356C40.4938 6.82356 40.9415 6.37584 40.9415 5.82356L40.9415 3.41178L40.9415 1.00001Z"
        fill="black" />
    <path d="M23.8819 40.9411L17.0583 40.9411L17.0583 6.82331L23.8819 6.82331L23.8819 40.9411Z"
        fill="black" />
    <path
        d="M23.8824 39.235C23.8824 40.1772 24.6464 40.9411 25.5885 40.9411L23.8824 40.9411L23.8824 39.235Z"
        fill="black" />
    <path
        d="M15.3522 40.9425C16.2943 40.9425 17.0582 40.1785 17.0582 39.2365L17.0582 40.9425L15.3522 40.9425Z"
        fill="black" />
    <rect x="0.000915527" y="40.9411" width="40.9415" height="6.82355" rx="1" fill="black" />
    <path
        d="M53.7344 6.8232C52.3214 6.82333 51.176 7.96878 51.1758 9.3818L51.1758 6.8232L53.7344 6.8232Z"
        fill="black" />
    <path
        d="M48.6172 6.82384C50.0302 6.82369 51.1756 5.67818 51.1758 4.26525L51.1758 6.82384L48.6172 6.82384Z"
        fill="black" />
    <path
        d="M78.47 41.9412C78.47 41.3889 78.0223 40.9412 77.47 40.9412L52.1757 40.9412C51.6234 40.9412 51.1757 41.3889 51.1757 41.9412L51.1757 46.7648C51.1757 47.3171 51.6234 47.7648 52.1757 47.7648L77.47 47.7648C78.0223 47.7648 78.47 47.3171 78.47 46.7648L78.47 44.353L78.47 41.9412Z"
        fill="black" />
    <path
        d="M78.47 1.00001C78.47 0.447723 78.0223 7.68647e-06 77.47 7.75687e-06L52.1757 1.09814e-05C51.6234 1.10518e-05 51.1757 0.447726 51.1757 1.00001L51.1757 5.82356C51.1757 6.37585 51.6234 6.82356 52.1757 6.82356L77.47 6.82356C78.0223 6.82356 78.47 6.37584 78.47 5.82356L78.47 3.41178L78.47 1.00001Z"
        fill="black" />
    <path
        d="M50.1757 40.9412C50.728 40.9412 51.1757 40.4935 51.1757 39.9412L51.1757 7.82344C51.1757 7.27116 50.728 6.82344 50.1757 6.82344L45.3521 6.82344C44.7999 6.82344 44.3521 7.27116 44.3521 7.82344L44.3521 39.9412C44.3521 40.4935 44.7999 40.9412 45.3521 40.9412L47.7639 40.9412L50.1757 40.9412Z"
        fill="black" />
    <rect x="78.47" y="6.82314" width="6.82358" height="7.6765" rx="1" fill="black" />
    <rect x="78.47" y="27.2941" width="6.82358" height="13.6471" rx="1" fill="black" />
    <rect x="78.47" y="20.471" width="6.82355" height="13.6472" rx="1"
        transform="rotate(90 78.47 20.471)" fill="black" />
    <rect x="51.1757" y="5.97065" width="0.852948" height="0.852944" fill="black" />
    <rect x="50.3232" y="6.82314" width="0.852948" height="0.852944" fill="black" />
    <path
        d="M51.1743 38.3827C51.1743 39.7958 52.3198 40.9412 53.7328 40.9413L51.1743 40.9413L51.1743 38.3827Z"
        fill="black" />
    <path
        d="M51.1741 43.4999C51.1738 42.0871 50.0283 40.9416 48.6155 40.9413L51.1741 40.9413L51.1741 43.4999Z"
        fill="black" />
    <rect x="50.3217" y="40.0888" width="0.852948" height="0.852944" fill="black" />
    <rect x="51.1741" y="40.9413" width="0.852948" height="0.852944" fill="black" />
    <path
        d="M78.4695 24.7355C78.4696 26.1485 79.615 27.2939 81.0281 27.294L78.4695 27.294L78.4695 24.7355Z"
        fill="black" />
    <path
        d="M78.4693 29.8526C78.4692 28.4395 77.3229 27.294 75.9097 27.294L78.4693 27.294L78.4693 29.8526Z"
        fill="black" />
    <rect x="78.4688" y="27.294" width="0.852948" height="0.852944" fill="black" />
    <rect x="77.6163" y="26.4416" width="0.852948" height="0.852944" fill="black" />
    <path
        d="M78.4695 4.26448C78.4696 5.6775 79.615 6.82298 81.0281 6.82307L78.4695 6.82307L78.4695 4.26448Z"
        fill="black" />
    <path
        d="M78.4693 9.38167C78.4692 7.96856 77.3229 6.82307 75.9097 6.82307L78.4693 6.82307L78.4693 9.38167Z"
        fill="black" />
    <rect x="77.6163" y="5.97059" width="0.852948" height="0.852944" fill="black" />
    <rect x="78.4688" y="6.82307" width="0.852948" height="0.852944" fill="black" />
    <path
        d="M75.9099 40.9413C77.3228 40.9411 78.4683 39.7957 78.4684 38.3827L78.4684 40.9413L75.9099 40.9413Z"
        fill="black" />
    <path
        d="M81.027 40.9414C79.6139 40.9415 78.4684 42.0878 78.4684 43.501L78.4684 40.9414L81.027 40.9414Z"
        fill="black" />
    <rect x="77.616" y="41.7946" width="0.852944" height="0.852948"
        transform="rotate(-90 77.616 41.7946)" fill="black" />
    <rect x="78.4684" y="40.9421" width="0.852944" height="0.852948"
        transform="rotate(-90 78.4684 40.9421)" fill="black" />
    <path
        d="M122.825 1.00001C122.825 0.447723 122.377 7.68647e-06 121.825 7.75687e-06L96.5305 1.09814e-05C95.9782 1.10518e-05 95.5305 0.447726 95.5305 1.00001L95.5305 5.82356C95.5305 6.37585 95.9782 6.82356 96.5305 6.82356L121.825 6.82356C122.377 6.82356 122.825 6.37584 122.825 5.82356L122.825 3.41178L122.825 1.00001Z"
        fill="black" />
    <path
        d="M122.825 41.9412C122.825 41.3889 122.377 40.9412 121.825 40.9412L96.5305 40.9412C95.9782 40.9412 95.5305 41.3889 95.5305 41.9412L95.5305 46.7648C95.5305 47.3171 95.9782 47.7648 96.5305 47.7648L121.825 47.7648C122.377 47.7648 122.825 47.3171 122.825 46.7648L122.825 44.353L122.825 41.9412Z"
        fill="black" />
    <path
        d="M94.5289 40.9412C95.0812 40.9412 95.5289 40.4935 95.5289 39.9412L95.5289 7.82344C95.5289 7.27116 95.0811 6.82344 94.5289 6.82344L89.7053 6.82344C89.153 6.82344 88.7053 7.27116 88.7053 7.82344L88.7053 39.9412C88.7053 40.4935 89.153 40.9412 89.7053 40.9412L92.1171 40.9412L94.5289 40.9412Z"
        fill="black" />
    <path
        d="M128.648 40.9412C129.2 40.9412 129.648 40.4935 129.648 39.9412L129.648 7.82344C129.648 7.27116 129.2 6.82344 128.648 6.82344L123.824 6.82344C123.272 6.82344 122.824 7.27116 122.824 7.82344L122.824 39.9412C122.824 40.4935 123.272 40.9412 123.824 40.9412L126.236 40.9412L128.648 40.9412Z"
        fill="black" />
    <path
        d="M120.263 40.9413C121.676 40.941 122.822 39.7956 122.822 38.3827L122.822 40.9413L120.263 40.9413Z"
        fill="black" />
    <path
        d="M125.38 40.9414C123.967 40.9415 122.822 42.0878 122.822 43.501L122.822 40.9414L125.38 40.9414Z"
        fill="black" />
    <rect x="121.969" y="41.7946" width="0.852944" height="0.852948"
        transform="rotate(-90 121.969 41.7946)" fill="black" />
    <rect x="122.821" y="40.9413" width="0.852944" height="0.852948"
        transform="rotate(-90 122.821 40.9413)" fill="black" />
    <path
        d="M95.5282 43.5006C95.5281 42.0875 94.3817 40.942 92.9686 40.942L95.5282 40.942L95.5282 43.5006Z"
        fill="black" />
    <path
        d="M95.5284 38.3834C95.5285 39.7964 96.6739 40.9419 98.087 40.942L95.5284 40.942L95.5284 38.3834Z"
        fill="black" />
    <rect x="96.3802" y="41.7945" width="0.852948" height="0.852944"
        transform="rotate(180 96.3802 41.7945)" fill="black" />
    <rect x="95.5277" y="40.942" width="0.852948" height="0.852944"
        transform="rotate(180 95.5277 40.942)" fill="black" />
    <path
        d="M92.9716 6.82383C94.3847 6.82375 95.5302 5.67741 95.5302 4.26426L95.5302 6.82383L92.9716 6.82383Z"
        fill="black" />
    <path
        d="M98.0887 6.82319C96.6758 6.82338 95.5304 7.96887 95.5302 9.38179L95.5302 6.82319L98.0887 6.82319Z"
        fill="black" />
    <rect x="94.676" y="7.6764" width="0.852944" height="0.852948"
        transform="rotate(-90 94.676 7.6764)" fill="black" />
    <rect x="95.5302" y="6.82311" width="0.852944" height="0.852948"
        transform="rotate(-90 95.5302 6.82311)" fill="black" />
    <path
        d="M122.824 9.3817C122.824 7.96859 121.678 6.8231 120.265 6.8231L122.824 6.8231L122.824 9.3817Z"
        fill="black" />
    <path
        d="M122.824 4.26451C122.824 5.67751 123.97 6.82293 125.383 6.8231L122.824 6.8231L122.824 4.26451Z"
        fill="black" />
    <rect x="123.678" y="7.67559" width="0.852948" height="0.852944"
        transform="rotate(180 123.678 7.67559)" fill="black" />
    <rect x="122.824" y="6.8231" width="0.852948" height="0.852944"
        transform="rotate(180 122.824 6.8231)" fill="black" />
    <rect x="167.176" y="6.82314" width="6.82358" height="7.6765" rx="1" fill="black" />
    <rect x="167.176" y="27.2941" width="6.82358" height="13.6471" rx="1" fill="black" />
    <path
        d="M167.178 24.7355C167.178 26.1484 168.324 27.2938 169.736 27.294L167.178 27.294L167.178 24.7355Z"
        fill="black" />
    <path
        d="M167.178 29.8526C167.178 28.4397 166.032 27.2942 164.619 27.294L167.178 27.294L167.178 29.8526Z"
        fill="black" />
    <rect x="166.326" y="26.4416" width="0.852948" height="0.852944" fill="black" />
    <rect x="167.179" y="27.294" width="0.852948" height="0.852944" fill="black" />
    <path
        d="M164.618 40.9421C166.031 40.942 167.176 39.7965 167.176 38.3835L167.176 40.9421L164.618 40.9421Z"
        fill="black" />
    <path
        d="M169.736 40.9414C168.323 40.9416 167.177 42.0879 167.177 43.501L167.177 40.9414L169.736 40.9414Z"
        fill="black" />
    <rect x="166.325" y="41.7946" width="0.852944" height="0.852948"
        transform="rotate(-90 166.325 41.7946)" fill="black" />
    <rect x="167.177" y="40.9413" width="0.852944" height="0.852948"
        transform="rotate(-90 167.177 40.9413)" fill="black" />
    <path
        d="M167.176 1.00004C167.176 0.447754 166.729 3.8204e-05 166.176 3.82745e-05L140.882 4.1499e-05C140.33 4.15694e-05 139.882 0.447757 139.882 1.00004L139.882 5.82359C139.882 6.37588 140.33 6.82359 140.882 6.82359L166.176 6.82359C166.729 6.82359 167.176 6.37587 167.176 5.82359L167.176 3.41181L167.176 1.00004Z"
        fill="black" />
    <path
        d="M167.176 21.471C167.176 20.9188 166.729 20.471 166.176 20.471L140.882 20.471C140.33 20.471 139.882 20.9188 139.882 21.471L139.882 26.2946C139.882 26.8469 140.33 27.2946 140.882 27.2946L166.176 27.2946C166.729 27.2946 167.176 26.8469 167.176 26.2946L167.176 23.8828L167.176 21.471Z"
        fill="black" />
    <rect x="133.06" y="32.4115" width="6.82358" height="8.52944" rx="1" fill="black" />
    <rect x="133.06" y="6.82317" width="6.82358" height="13.6471" rx="1" fill="black" />
    <rect x="167.176" y="40.9413" width="6.82355" height="27.2943" rx="1"
        transform="rotate(90 167.176 40.9413)" fill="black" />
    <path
        d="M137.323 6.82305C138.736 6.82296 139.881 5.67745 139.881 4.26446L139.881 6.82305L137.323 6.82305Z"
        fill="black" />
    <path
        d="M142.44 6.82322C141.027 6.8234 139.882 7.96891 139.881 9.38182L139.881 6.82322L142.44 6.82322Z"
        fill="black" />
    <rect x="139.029" y="7.67643" width="0.852944" height="0.852948"
        transform="rotate(-90 139.029 7.67643)" fill="black" />
    <rect x="139.881" y="6.82314" width="0.852944" height="0.852948"
        transform="rotate(-90 139.881 6.82314)" fill="black" />
    <path d="M139.883 43.5006C139.883 42.0876 138.737 40.9422 137.324 40.942H139.883V43.5006Z"
        fill="black" />
    <path
        d="M139.883 38.3834C139.883 39.7963 141.029 40.9418 142.442 40.942L139.883 40.942L139.883 38.3834Z"
        fill="black" />
    <rect x="140.735" y="41.7945" width="0.852948" height="0.852944"
        transform="rotate(-180 140.735 41.7945)" fill="black" />
    <rect x="139.883" y="40.942" width="0.852948" height="0.852944"
        transform="rotate(-180 139.883 40.942)" fill="black" />
    <path d="M139.883 23.029C139.883 21.6161 138.737 20.4706 137.324 20.4704H139.883V23.029Z"
        fill="black" />
    <path
        d="M139.883 17.9118C139.883 19.3249 141.029 20.4702 142.442 20.4704L139.883 20.4704L139.883 17.9118Z"
        fill="black" />
    <rect x="140.735" y="21.3229" width="0.852948" height="0.852944"
        transform="rotate(-180 140.735 21.3229)" fill="black" />
    <rect x="139.883" y="20.4704" width="0.852948" height="0.852944"
        transform="rotate(-180 139.883 20.4704)" fill="black" />
    <path
        d="M167.177 9.3817C167.176 7.96866 166.031 6.82322 164.618 6.8231L167.177 6.8231L167.177 9.3817Z"
        fill="black" />
    <path
        d="M167.177 4.26451C167.177 5.67749 168.322 6.82292 169.735 6.8231L167.177 6.8231L167.177 4.26451Z"
        fill="black" />
    <rect x="168.03" y="7.67559" width="0.852948" height="0.852944"
        transform="rotate(180 168.03 7.67559)" fill="black" />
    <rect x="167.176" y="6.8231" width="0.852948" height="0.852944"
        transform="rotate(180 167.176 6.8231)" fill="black" />
</svg>